<svg width="192" height="64" viewBox="0 0 192 64" fill="none" xmlns="http://www.w3.org/2000/svg">
<rect x="0.8" y="0.8" width="190.4" height="62.4" rx="10.4" stroke="white" stroke-width="1.6"/>
<path d="M130.441 30.7214V34.3871H128.143V36.791H130.441V44.959C130.441 47.748 131.702 48.8636 134.877 48.8636C135.434 48.8636 135.966 48.7972 136.431 48.7175V46.3402C136.032 46.38 135.78 46.4066 135.341 46.4066C133.92 46.4066 133.296 45.7425 133.296 44.2285V36.791H136.431V34.3871H133.296V30.7214H130.441Z" fill="white"/>
<path d="M144.517 49.0629C148.74 49.0629 151.33 46.2339 151.33 41.5457C151.33 36.8839 148.727 34.0418 144.517 34.0418C140.293 34.0418 137.69 36.8839 137.69 41.5457C137.69 46.2339 140.28 49.0629 144.517 49.0629ZM144.517 46.5261C142.033 46.5261 140.639 44.7066 140.639 41.5457C140.639 38.4113 142.033 36.5785 144.517 36.5785C146.987 36.5785 148.395 38.4113 148.395 41.5457C148.395 44.6933 146.987 46.5261 144.517 46.5261Z" fill="white"/>
<path d="M153.546 48.7839H156.401V40.2441C156.401 38.2121 157.929 36.8441 160.093 36.8441C160.598 36.8441 161.448 36.9371 161.687 37.0168V34.2011C161.382 34.1214 160.837 34.0816 160.412 34.0816C158.526 34.0816 156.919 35.1175 156.508 36.5386H156.295V34.3207H153.546V48.7839Z" fill="white"/>
<path d="M168.777 36.4722C170.889 36.4722 172.27 37.9464 172.337 40.2175H165.032C165.191 37.9597 166.666 36.4722 168.777 36.4722ZM172.323 44.8793C171.792 46.0082 170.61 46.6324 168.884 46.6324C166.599 46.6324 165.125 45.0254 165.032 42.4886V42.3293H175.245V41.3332C175.245 36.791 172.815 34.0418 168.791 34.0418C164.713 34.0418 162.123 36.9769 162.123 41.5988C162.123 46.2207 164.66 49.0629 168.804 49.0629C172.111 49.0629 174.422 47.4691 175.073 44.8793H172.323Z" fill="white"/>
<path d="M111.715 43.4429C111.935 46.9944 114.895 49.2657 119.3 49.2657C124.008 49.2657 126.954 46.8843 126.954 43.085C126.954 40.0978 125.274 38.446 121.199 37.4961L119.011 36.9593C116.423 36.3536 115.377 35.5414 115.377 34.1236C115.377 32.334 117.001 31.1639 119.437 31.1639C121.75 31.1639 123.347 32.3065 123.636 34.1373H126.637C126.458 30.7923 123.512 28.4384 119.479 28.4384C115.143 28.4384 112.252 30.7923 112.252 34.33C112.252 37.2484 113.89 38.9828 117.483 39.8225L120.043 40.442C122.672 41.0614 123.829 41.97 123.829 43.4842C123.829 45.2462 122.012 46.5264 119.534 46.5264C116.877 46.5264 115.032 45.3288 114.771 43.4429H111.715Z" fill="white"/>
<path d="M82.1352 34.0816C80.1696 34.0816 78.4696 35.0644 77.593 36.7113H77.3805V34.3207H74.6313V53.5918H77.4868V46.5925H77.7126C78.4696 48.1199 80.1032 49.023 82.1618 49.023C85.8141 49.023 88.1384 46.141 88.1384 41.5457C88.1384 36.9504 85.8141 34.0816 82.1352 34.0816ZM81.3251 46.4597C78.9345 46.4597 77.4337 44.5738 77.4337 41.5589C77.4337 38.5308 78.9345 36.6449 81.3384 36.6449C83.7555 36.6449 85.2032 38.491 85.2032 41.5457C85.2032 44.6136 83.7555 46.4597 81.3251 46.4597Z" fill="white"/>
<path d="M98.1301 34.0816C96.1645 34.0816 94.4645 35.0644 93.5879 36.7113H93.3754V34.3207H90.6262V53.5918H93.4817V46.5925H93.7075C94.4645 48.1199 96.0981 49.023 98.1567 49.023C101.809 49.023 104.133 46.141 104.133 41.5457C104.133 36.9504 101.809 34.0816 98.1301 34.0816ZM97.32 46.4597C94.9293 46.4597 93.4285 44.5738 93.4285 41.5589C93.4285 38.5308 94.9293 36.6449 97.3332 36.6449C99.7504 36.6449 101.198 38.491 101.198 41.5457C101.198 44.6136 99.7504 46.4597 97.32 46.4597Z" fill="white"/>
<path d="M69.5081 48.7839H72.7843L65.6125 28.9202H62.2949L55.123 48.7839H58.2891L60.12 43.5117H67.6911L69.5081 48.7839ZM63.7954 32.5267H64.0294L66.9064 40.9238H60.9046L63.7954 32.5267Z" fill="white"/>
<path d="M57.041 13.9375V23.52H60.5008C63.3563 23.52 65.0098 21.7602 65.0098 18.6989C65.0098 15.684 63.343 13.9375 60.5008 13.9375H57.041ZM58.5285 15.2922H60.3348C62.3203 15.2922 63.4957 16.554 63.4957 18.7188C63.4957 20.9168 62.3402 22.1653 60.3348 22.1653H58.5285V15.2922Z" fill="white"/>
<path d="M70.0739 23.6594C72.1856 23.6594 73.4805 22.245 73.4805 19.9008C73.4805 17.57 72.179 16.1489 70.0739 16.1489C67.9622 16.1489 66.6606 17.57 66.6606 19.9008C66.6606 22.245 67.9555 23.6594 70.0739 23.6594ZM70.0739 22.3911C68.8321 22.3911 68.1348 21.4813 68.1348 19.9008C68.1348 18.3336 68.8321 17.4172 70.0739 17.4172C71.3091 17.4172 72.013 18.3336 72.013 19.9008C72.013 21.4747 71.3091 22.3911 70.0739 22.3911Z" fill="white"/>
<path d="M84.508 16.2883H83.0802L81.792 21.8067H81.6791L80.1916 16.2883H78.8236L77.3361 21.8067H77.2298L75.9349 16.2883H74.4873L76.4795 23.52H77.947L79.4345 18.1942H79.5474L81.0416 23.52H82.5224L84.508 16.2883Z" fill="white"/>
<path d="M86.1522 23.52H87.5799V19.2899C87.5799 18.161 88.2506 17.4571 89.3065 17.4571C90.3623 17.4571 90.867 18.0348 90.867 19.1969V23.52H92.2948V18.8383C92.2948 17.1184 91.4049 16.1489 89.7912 16.1489C88.7022 16.1489 87.985 16.6336 87.633 17.4372H87.5268V16.2883H86.1522V23.52Z" fill="white"/>
<path d="M94.5433 23.52H95.971V13.4661H94.5433V23.52Z" fill="white"/>
<path d="M101.341 23.6594C103.452 23.6594 104.747 22.245 104.747 19.9008C104.747 17.57 103.446 16.1489 101.341 16.1489C99.2289 16.1489 97.9273 17.57 97.9273 19.9008C97.9273 22.245 99.2223 23.6594 101.341 23.6594ZM101.341 22.3911C100.099 22.3911 99.4016 21.4813 99.4016 19.9008C99.4016 18.3336 100.099 17.4172 101.341 17.4172C102.576 17.4172 103.28 18.3336 103.28 19.9008C103.28 21.4747 102.576 22.3911 101.341 22.3911Z" fill="white"/>
<path d="M109.001 22.4375C108.224 22.4375 107.66 22.059 107.66 21.4083C107.66 20.7708 108.111 20.4321 109.107 20.3657L110.874 20.2528V20.8571C110.874 21.7536 110.077 22.4375 109.001 22.4375ZM108.636 23.6395C109.586 23.6395 110.376 23.2278 110.807 22.504H110.92V23.52H112.295V18.5793C112.295 17.052 111.272 16.1489 109.459 16.1489C107.819 16.1489 106.65 16.9458 106.504 18.1875H107.886C108.045 17.6762 108.596 17.384 109.393 17.384C110.369 17.384 110.874 17.8157 110.874 18.5793V19.2036L108.915 19.3165C107.195 19.4227 106.225 20.1731 106.225 21.4747C106.225 22.7961 107.241 23.6395 108.636 23.6395Z" fill="white"/>
<path d="M117.14 23.6395C118.136 23.6395 118.979 23.168 119.411 22.3778H119.524V23.52H120.892V13.4661H119.464V17.4372H119.358C118.966 16.6403 118.129 16.1688 117.14 16.1688C115.314 16.1688 114.138 17.6165 114.138 19.9008C114.138 22.1918 115.301 23.6395 117.14 23.6395ZM117.545 17.4504C118.74 17.4504 119.491 18.4 119.491 19.9075C119.491 21.4215 118.747 22.3579 117.545 22.3579C116.336 22.3579 115.613 21.4348 115.613 19.9008C115.613 18.3801 116.343 17.4504 117.545 17.4504Z" fill="white"/>
<path d="M130.15 23.6594C132.262 23.6594 133.557 22.245 133.557 19.9008C133.557 17.57 132.255 16.1489 130.15 16.1489C128.039 16.1489 126.737 17.57 126.737 19.9008C126.737 22.245 128.032 23.6594 130.15 23.6594ZM130.15 22.3911C128.909 22.3911 128.211 21.4813 128.211 19.9008C128.211 18.3336 128.909 17.4172 130.15 17.4172C131.385 17.4172 132.089 18.3336 132.089 19.9008C132.089 21.4747 131.385 22.3911 130.15 22.3911Z" fill="white"/>
<path d="M135.447 23.52H136.875V19.2899C136.875 18.161 137.545 17.4571 138.601 17.4571C139.657 17.4571 140.162 18.0348 140.162 19.1969V23.52H141.589V18.8383C141.589 17.1184 140.7 16.1489 139.086 16.1489C137.997 16.1489 137.28 16.6336 136.928 17.4372H136.821V16.2883H135.447V23.52Z" fill="white"/>
<path d="M148.165 14.4887V16.3215H147.016V17.5235H148.165V21.6075C148.165 23.002 148.796 23.5598 150.383 23.5598C150.662 23.5598 150.927 23.5266 151.16 23.4868V22.2981C150.961 22.318 150.835 22.3313 150.615 22.3313C149.905 22.3313 149.593 21.9993 149.593 21.2422V17.5235H151.16V16.3215H149.593V14.4887H148.165Z" fill="white"/>
<path d="M153.076 23.52H154.504V19.2965C154.504 18.2008 155.155 17.4637 156.324 17.4637C157.333 17.4637 157.871 18.0481 157.871 19.2036V23.52H159.299V18.8516C159.299 17.1317 158.349 16.1555 156.808 16.1555C155.719 16.1555 154.956 16.6403 154.604 17.4504H154.491V13.4661H153.076V23.52Z" fill="white"/>
<path d="M164.449 17.3641C165.505 17.3641 166.196 18.1012 166.229 19.2368H162.576C162.656 18.1079 163.393 17.3641 164.449 17.3641ZM166.222 21.5676C165.957 22.1321 165.366 22.4442 164.502 22.4442C163.36 22.4442 162.623 21.6407 162.576 20.3723V20.2926H167.683V19.7946C167.683 17.5235 166.468 16.1489 164.456 16.1489C162.417 16.1489 161.122 17.6165 161.122 19.9274C161.122 22.2383 162.391 23.6594 164.462 23.6594C166.116 23.6594 167.271 22.8625 167.597 21.5676H166.222Z" fill="white"/>
<path d="M39.6308 32.4813C39.6654 29.7917 41.1099 27.2468 43.4013 25.838C41.9557 23.7735 39.5345 22.4646 37.0154 22.3857C34.3286 22.1037 31.7239 23.9935 30.3548 23.9935C28.9591 23.9935 26.8511 22.4137 24.5812 22.4605C21.6224 22.556 18.864 24.2383 17.4245 26.825C14.3301 32.1825 16.6382 40.0562 19.6024 44.3868C21.0855 46.5073 22.8187 48.8761 25.0866 48.7921C27.3059 48.7 28.1348 47.3769 30.8137 47.3769C33.4677 47.3769 34.2453 48.7921 36.5593 48.7386C38.9407 48.7 40.4411 46.6087 41.8721 44.468C42.9377 42.957 43.7576 41.2871 44.3016 39.52C41.503 38.3363 39.634 35.5199 39.6308 32.4813Z" fill="white"/>
<path d="M35.2601 19.5378C36.5586 17.979 37.1983 15.9755 37.0433 13.9528C35.0596 14.1611 33.2272 15.1092 31.9112 16.6081C30.6244 18.0727 29.9547 20.0409 30.0813 21.9864C32.0657 22.0068 34.0166 21.0844 35.2601 19.5378Z" fill="white"/>
</svg>
