<svg width="216" height="64" viewBox="0 0 216 64" fill="none" xmlns="http://www.w3.org/2000/svg">
<rect x="0.8" y="0.8" width="214.4" height="62.4" rx="7.2" fill="black"/>
<rect x="0.8" y="0.8" width="214.4" height="62.4" rx="7.2" stroke="#A6A6A6" stroke-width="1.6"/>
<path d="M109.018 34.8018C105.255 34.8018 102.188 37.6642 102.188 41.6066C102.188 45.525 105.255 48.4114 109.018 48.4114C112.783 48.4114 115.85 45.525 115.85 41.6066C115.849 37.6642 112.782 34.8018 109.018 34.8018ZM109.018 45.733C106.956 45.733 105.178 44.0322 105.178 41.6082C105.178 39.1586 106.958 37.4834 109.018 37.4834C111.081 37.4834 112.858 39.1586 112.858 41.6082C112.858 44.0306 111.081 45.733 109.018 45.733ZM94.116 34.8018C90.3528 34.8018 87.2856 37.6642 87.2856 41.6066C87.2856 45.525 90.3528 48.4114 94.116 48.4114C97.8808 48.4114 100.948 45.525 100.948 41.6066C100.948 37.6642 97.8808 34.8018 94.116 34.8018ZM94.116 45.733C92.0536 45.733 90.276 44.0322 90.276 41.6082C90.276 39.1586 92.0552 37.4834 94.116 37.4834C96.1784 37.4834 97.956 39.1586 97.956 41.6082C97.9576 44.0306 96.1784 45.733 94.116 45.733ZM76.3912 36.8914V39.7778H83.3C83.0936 41.4018 82.5528 42.5874 81.7272 43.4114C80.7224 44.4162 79.1496 45.525 76.3912 45.525C72.1384 45.525 68.8136 42.0962 68.8136 37.8434C68.8136 33.5906 72.1384 30.1618 76.3912 30.1618C78.6856 30.1618 80.3608 31.0642 81.5976 32.2242L83.6344 30.1874C81.9064 28.5378 79.6136 27.2754 76.3912 27.2754C70.5656 27.2754 65.668 32.0178 65.668 37.8434C65.668 43.669 70.5656 48.4114 76.3912 48.4114C79.5352 48.4114 81.908 47.3794 83.7624 45.4466C85.6696 43.5394 86.2632 40.8578 86.2632 38.693C86.2632 38.0242 86.212 37.405 86.108 36.8898H76.3912V36.8914ZM148.884 39.133C148.318 37.613 146.59 34.8018 143.058 34.8018C139.553 34.8018 136.639 37.5602 136.639 41.6066C136.639 45.421 139.527 48.4114 143.393 48.4114C146.511 48.4114 148.316 46.5042 149.065 45.3954L146.745 43.8482C145.972 44.9826 144.914 45.7298 143.393 45.7298C141.873 45.7298 140.79 45.0338 140.094 43.6674L149.193 39.9042L148.884 39.133ZM139.604 41.4018C139.527 38.7714 141.641 37.4322 143.162 37.4322C144.348 37.4322 145.353 38.0258 145.689 38.8754L139.604 41.4018ZM132.207 48.0002H135.196V27.9986H132.207V48.0002ZM127.308 36.3234H127.206C126.535 35.5234 125.246 34.8018 123.623 34.8018C120.22 34.8018 117.102 37.7922 117.102 41.6338C117.102 45.4482 120.22 48.413 123.623 48.413C125.247 48.413 126.535 47.6914 127.206 46.8674H127.308V47.8466C127.308 50.4498 125.916 51.8418 123.674 51.8418C121.844 51.8418 120.71 50.5282 120.246 49.4194L117.642 50.5026C118.39 52.3058 120.374 54.5234 123.674 54.5234C127.18 54.5234 130.145 52.461 130.145 47.4338V35.2162H127.31V36.3234H127.308ZM123.881 45.733C121.818 45.733 120.092 44.005 120.092 41.6338C120.092 39.2354 121.818 37.4834 123.881 37.4834C125.916 37.4834 127.514 39.2354 127.514 41.6338C127.514 44.005 125.916 45.733 123.881 45.733ZM162.89 27.9986H155.737V48.0002H158.721V40.4226H162.889C166.198 40.4226 169.452 38.0274 169.452 34.2114C169.452 30.3954 166.199 27.9986 162.89 27.9986ZM162.967 37.6386H158.721V30.7826H162.967C165.199 30.7826 166.466 32.6306 166.466 34.2114C166.466 35.7602 165.199 37.6386 162.967 37.6386ZM181.418 34.7666C179.257 34.7666 177.018 35.7186 176.092 37.829L178.742 38.9346C179.308 37.829 180.364 37.4674 181.47 37.4674C183.014 37.4674 184.583 38.3938 184.609 40.0402V40.2466C184.068 39.9378 182.91 39.4754 181.495 39.4754C178.639 39.4754 175.73 41.045 175.73 43.9778C175.73 46.6546 178.073 48.3778 180.697 48.3778C182.703 48.3778 183.81 47.477 184.505 46.421H184.607V47.965H187.49V40.2962C187.492 36.7474 184.839 34.7666 181.418 34.7666ZM181.057 45.7282C180.081 45.7282 178.716 45.2386 178.716 44.029C178.716 42.485 180.415 41.893 181.882 41.893C183.193 41.893 183.812 42.1762 184.609 42.5618C184.377 44.4162 182.782 45.7282 181.057 45.7282ZM197.99 35.2034L194.567 43.8754H194.465L190.913 35.2034H187.697L193.023 47.3234L189.986 54.0658H193.1L201.31 35.2034H197.99ZM171.1 48.0002H174.084V27.9986H171.1V48.0002Z" fill="white"/>
<path d="M75.8697 16.3887C75.8697 17.7295 75.4729 18.7967 74.6777 19.5935C73.7753 20.5407 72.5977 21.0143 71.1513 21.0143C69.7657 21.0143 68.5865 20.5343 67.6185 19.5743C66.6489 18.6127 66.1641 17.4223 66.1641 16.0015C66.1641 14.5791 66.6489 13.3887 67.6185 12.4287C68.5865 11.4671 69.7657 10.9871 71.1513 10.9871C71.8393 10.9871 72.4969 11.1215 73.1209 11.3887C73.7465 11.6575 74.2473 12.0143 74.6217 12.4607L73.7785 13.3055C73.1433 12.5455 72.2681 12.1663 71.1497 12.1663C70.1385 12.1663 69.2649 12.5215 68.5273 13.2319C67.7897 13.9423 67.4217 14.8655 67.4217 15.9999C67.4217 17.1343 67.7897 18.0575 68.5273 18.7679C69.2649 19.4783 70.1385 19.8335 71.1497 19.8335C72.2217 19.8335 73.1161 19.4767 73.8313 18.7615C74.2953 18.2959 74.5641 17.6479 74.6361 16.8175H71.1497V15.6639H75.8009C75.8489 15.9151 75.8697 16.1567 75.8697 16.3887Z" fill="white"/>
<path d="M83.2458 12.3792H78.8746V15.4224H82.817V16.576H78.8746V19.6192H83.2458V20.8H77.641V11.2H83.2458V12.3792Z" fill="white"/>
<path d="M88.4472 20.8H87.2136V12.3792H84.532V11.2H91.1288V12.3792H88.4472V20.8Z" fill="white"/>
<path d="M95.9016 20.8V11.2H97.1352V20.8H95.9016Z" fill="white"/>
<path d="M102.606 20.8H101.372V12.3792H98.6906V11.2H105.287V12.3792H102.606V20.8Z" fill="white"/>
<path d="M117.775 19.56C116.831 20.5296 115.658 21.0144 114.255 21.0144C112.852 21.0144 111.679 20.5296 110.737 19.56C109.793 18.5904 109.322 17.4032 109.322 16C109.322 14.5968 109.793 13.4096 110.737 12.44C111.679 11.4704 112.852 10.984 114.255 10.984C115.65 10.984 116.821 11.472 117.769 12.4464C118.716 13.4208 119.189 14.6048 119.189 16C119.189 17.4032 118.717 18.5904 117.775 19.56ZM111.647 18.7552C112.357 19.4752 113.226 19.8336 114.255 19.8336C115.284 19.8336 116.154 19.4736 116.863 18.7552C117.573 18.0352 117.93 17.1168 117.93 16C117.93 14.8832 117.573 13.9648 116.863 13.2448C116.154 12.5248 115.284 12.1664 114.255 12.1664C113.226 12.1664 112.357 12.5264 111.647 13.2448C110.938 13.9648 110.581 14.8832 110.581 16C110.581 17.1168 110.938 18.0352 111.647 18.7552Z" fill="white"/>
<path d="M120.921 20.8V11.2H122.422L127.087 18.6672H127.14L127.087 16.8176V11.2H128.321V20.8H127.033L122.151 12.9696H122.098L122.151 14.8192V20.8H120.921Z" fill="white"/>
<path d="M75.8697 16.3887C75.8697 17.7295 75.4729 18.7967 74.6777 19.5935C73.7753 20.5407 72.5977 21.0143 71.1513 21.0143C69.7657 21.0143 68.5865 20.5343 67.6185 19.5743C66.6489 18.6127 66.1641 17.4223 66.1641 16.0015C66.1641 14.5791 66.6489 13.3887 67.6185 12.4287C68.5865 11.4671 69.7657 10.9871 71.1513 10.9871C71.8393 10.9871 72.4969 11.1215 73.1209 11.3887C73.7465 11.6575 74.2473 12.0143 74.6217 12.4607L73.7785 13.3055C73.1433 12.5455 72.2681 12.1663 71.1497 12.1663C70.1385 12.1663 69.2649 12.5215 68.5273 13.2319C67.7897 13.9423 67.4217 14.8655 67.4217 15.9999C67.4217 17.1343 67.7897 18.0575 68.5273 18.7679C69.2649 19.4783 70.1385 19.8335 71.1497 19.8335C72.2217 19.8335 73.1161 19.4767 73.8313 18.7615C74.2953 18.2959 74.5641 17.6479 74.6361 16.8175H71.1497V15.6639H75.8009C75.8489 15.9151 75.8697 16.1567 75.8697 16.3887Z" stroke="white" stroke-width="0.32" stroke-miterlimit="10"/>
<path d="M83.2458 12.3792H78.8746V15.4224H82.817V16.576H78.8746V19.6192H83.2458V20.8H77.641V11.2H83.2458V12.3792Z" stroke="white" stroke-width="0.32" stroke-miterlimit="10"/>
<path d="M88.4472 20.8H87.2136V12.3792H84.532V11.2H91.1288V12.3792H88.4472V20.8Z" stroke="white" stroke-width="0.32" stroke-miterlimit="10"/>
<path d="M95.9016 20.8V11.2H97.1352V20.8H95.9016Z" stroke="white" stroke-width="0.32" stroke-miterlimit="10"/>
<path d="M102.606 20.8H101.372V12.3792H98.6906V11.2H105.287V12.3792H102.606V20.8Z" stroke="white" stroke-width="0.32" stroke-miterlimit="10"/>
<path d="M117.775 19.56C116.831 20.5296 115.658 21.0144 114.255 21.0144C112.852 21.0144 111.679 20.5296 110.737 19.56C109.793 18.5904 109.322 17.4032 109.322 16C109.322 14.5968 109.793 13.4096 110.737 12.44C111.679 11.4704 112.852 10.984 114.255 10.984C115.65 10.984 116.821 11.472 117.769 12.4464C118.716 13.4208 119.189 14.6048 119.189 16C119.189 17.4032 118.717 18.5904 117.775 19.56ZM111.647 18.7552C112.357 19.4752 113.226 19.8336 114.255 19.8336C115.284 19.8336 116.154 19.4736 116.863 18.7552C117.573 18.0352 117.93 17.1168 117.93 16C117.93 14.8832 117.573 13.9648 116.863 13.2448C116.154 12.5248 115.284 12.1664 114.255 12.1664C113.226 12.1664 112.357 12.5264 111.647 13.2448C110.938 13.9648 110.581 14.8832 110.581 16C110.581 17.1168 110.938 18.0352 111.647 18.7552Z" stroke="white" stroke-width="0.32" stroke-miterlimit="10"/>
<path d="M120.921 20.8V11.2H122.422L127.087 18.6672H127.14L127.087 16.8176V11.2H128.321V20.8H127.033L122.151 12.9696H122.098L122.151 14.8192V20.8H120.921Z" stroke="white" stroke-width="0.32" stroke-miterlimit="10"/>
<g filter="url(#filter0_ii_619_313)">
<path d="M16.6978 12.0609C16.2322 12.5537 15.957 13.3185 15.957 14.3089V49.6945C15.957 50.6865 16.2322 51.4497 16.6978 51.9425L16.8162 52.0577L36.6386 32.2353V32.0017V31.7681L16.8162 11.9441L16.6978 12.0609Z" fill="url(#paint0_linear_619_313)"/>
<path d="M43.2451 38.8448L36.6387 32.2352V32.0016V31.768L43.2467 25.16L43.3955 25.2448L51.2243 29.6928C53.4595 30.9632 53.4595 33.0416 51.2243 34.3136L43.3955 38.7616L43.2451 38.8448Z" fill="url(#paint1_linear_619_313)"/>
<g filter="url(#filter1_i_619_313)">
<path d="M43.3949 38.7601L36.6365 32.0017L16.6973 51.9425C17.4333 52.7233 18.6509 52.8193 20.0221 52.0417L43.3949 38.7601Z" fill="url(#paint2_linear_619_313)"/>
</g>
<path d="M43.3949 25.2433L20.0221 11.9633C18.6509 11.1841 17.4333 11.2817 16.6973 12.0625L36.6381 32.0033L43.3949 25.2433Z" fill="url(#paint3_linear_619_313)"/>
</g>
<defs>
<filter id="filter0_ii_619_313" x="15.957" y="11.4255" width="36.9434" height="41.1533" filterUnits="userSpaceOnUse" color-interpolation-filters="sRGB">
<feFlood flood-opacity="0" result="BackgroundImageFix"/>
<feBlend mode="normal" in="SourceGraphic" in2="BackgroundImageFix" result="shape"/>
<feColorMatrix in="SourceAlpha" type="matrix" values="0 0 0 0 0 0 0 0 0 0 0 0 0 0 0 0 0 0 127 0" result="hardAlpha"/>
<feOffset dy="-0.24"/>
<feComposite in2="hardAlpha" operator="arithmetic" k2="-1" k3="1"/>
<feColorMatrix type="matrix" values="0 0 0 0 0 0 0 0 0 0 0 0 0 0 0 0 0 0 0.12 0"/>
<feBlend mode="normal" in2="shape" result="effect1_innerShadow_619_313"/>
<feColorMatrix in="SourceAlpha" type="matrix" values="0 0 0 0 0 0 0 0 0 0 0 0 0 0 0 0 0 0 127 0" result="hardAlpha"/>
<feOffset dy="0.24"/>
<feComposite in2="hardAlpha" operator="arithmetic" k2="-1" k3="1"/>
<feColorMatrix type="matrix" values="0 0 0 0 1 0 0 0 0 1 0 0 0 0 1 0 0 0 0.25 0"/>
<feBlend mode="normal" in2="effect1_innerShadow_619_313" result="effect2_innerShadow_619_313"/>
</filter>
<filter id="filter1_i_619_313" x="16.6973" y="32.0017" width="26.6973" height="20.5771" filterUnits="userSpaceOnUse" color-interpolation-filters="sRGB">
<feFlood flood-opacity="0" result="BackgroundImageFix"/>
<feBlend mode="normal" in="SourceGraphic" in2="BackgroundImageFix" result="shape"/>
<feColorMatrix in="SourceAlpha" type="matrix" values="0 0 0 0 0 0 0 0 0 0 0 0 0 0 0 0 0 0 127 0" result="hardAlpha"/>
<feOffset dy="-0.24"/>
<feComposite in2="hardAlpha" operator="arithmetic" k2="-1" k3="1"/>
<feColorMatrix type="matrix" values="0 0 0 0 0 0 0 0 0 0 0 0 0 0 0 0 0 0 0.08 0"/>
<feBlend mode="normal" in2="shape" result="effect1_innerShadow_619_313"/>
</filter>
<linearGradient id="paint0_linear_619_313" x1="34.8815" y1="13.9345" x2="8.03031" y2="40.7857" gradientUnits="userSpaceOnUse">
<stop stop-color="#00A0FF"/>
<stop offset="0.0066" stop-color="#00A1FF"/>
<stop offset="0.2601" stop-color="#00BEFF"/>
<stop offset="0.5122" stop-color="#00D2FF"/>
<stop offset="0.7604" stop-color="#00DFFF"/>
<stop offset="1" stop-color="#00E3FF"/>
</linearGradient>
<linearGradient id="paint1_linear_619_313" x1="54.1339" y1="32.0016" x2="15.4204" y2="32.0016" gradientUnits="userSpaceOnUse">
<stop stop-color="#FFE000"/>
<stop offset="0.4087" stop-color="#FFBD00"/>
<stop offset="0.7754" stop-color="#FFA500"/>
<stop offset="1" stop-color="#FF9C00"/>
</linearGradient>
<linearGradient id="paint2_linear_619_313" x1="39.7246" y1="35.6719" x2="3.31103" y2="72.0856" gradientUnits="userSpaceOnUse">
<stop stop-color="#FF3A44"/>
<stop offset="1" stop-color="#C31162"/>
</linearGradient>
<linearGradient id="paint3_linear_619_313" x1="11.6755" y1="0.282938" x2="27.9352" y2="16.5426" gradientUnits="userSpaceOnUse">
<stop stop-color="#32A071"/>
<stop offset="0.0685" stop-color="#2DA771"/>
<stop offset="0.4762" stop-color="#15CF74"/>
<stop offset="0.8009" stop-color="#06E775"/>
<stop offset="1" stop-color="#00F076"/>
</linearGradient>
</defs>
</svg>
